<mxfile host="app.diagrams.net" agent="Mozilla/5.0 (Windows NT 10.0; Win64; x64) AppleWebKit/537.36 (KHTML, like Gecko) Chrome/135.0.0.0 Safari/537.36" version="26.2.9">
  <diagram name="PÃ¡gina-1" id="bR9RdBv-MZWMBWE-Dvn0">
    <mxGraphModel dx="1044" dy="658" grid="1" gridSize="10" guides="1" tooltips="1" connect="1" arrows="1" fold="1" page="1" pageScale="1" pageWidth="827" pageHeight="1169" math="0" shadow="0">
      <root>
        <mxCell id="0" />
        <mxCell id="1" parent="0" />
        <mxCell id="GlDdtBOUE6V0EUhZfNkV-1" value="" style="ellipse;whiteSpace=wrap;html=1;aspect=fixed;" vertex="1" parent="1">
          <mxGeometry x="40" y="40" width="80" height="80" as="geometry" />
        </mxCell>
        <mxCell id="GlDdtBOUE6V0EUhZfNkV-2" value="" style="endArrow=classic;html=1;rounded=0;" edge="1" parent="1" source="GlDdtBOUE6V0EUhZfNkV-1" target="GlDdtBOUE6V0EUhZfNkV-3">
          <mxGeometry width="50" height="50" relative="1" as="geometry">
            <mxPoint x="330" y="280" as="sourcePoint" />
            <mxPoint x="380" y="230" as="targetPoint" />
          </mxGeometry>
        </mxCell>
        <mxCell id="GlDdtBOUE6V0EUhZfNkV-3" value="Proposed" style="rounded=1;whiteSpace=wrap;html=1;fillColor=none;" vertex="1" parent="1">
          <mxGeometry x="160" y="50" width="120" height="60" as="geometry" />
        </mxCell>
        <mxCell id="GlDdtBOUE6V0EUhZfNkV-4" value="" style="endArrow=classic;html=1;rounded=0;exitX=1;exitY=0.5;exitDx=0;exitDy=0;entryX=0;entryY=0.5;entryDx=0;entryDy=0;" edge="1" parent="1" source="GlDdtBOUE6V0EUhZfNkV-3" target="GlDdtBOUE6V0EUhZfNkV-5">
          <mxGeometry width="50" height="50" relative="1" as="geometry">
            <mxPoint x="330" y="280" as="sourcePoint" />
            <mxPoint x="400" y="80" as="targetPoint" />
          </mxGeometry>
        </mxCell>
        <mxCell id="GlDdtBOUE6V0EUhZfNkV-5" value="Scheluded" style="rounded=1;whiteSpace=wrap;html=1;" vertex="1" parent="1">
          <mxGeometry x="320" y="50" width="120" height="60" as="geometry" />
        </mxCell>
        <mxCell id="GlDdtBOUE6V0EUhZfNkV-6" value="Open for enrollment" style="rounded=1;whiteSpace=wrap;html=1;" vertex="1" parent="1">
          <mxGeometry x="320" y="150" width="120" height="60" as="geometry" />
        </mxCell>
        <mxCell id="GlDdtBOUE6V0EUhZfNkV-7" value="" style="endArrow=classic;html=1;rounded=0;exitX=0.5;exitY=1;exitDx=0;exitDy=0;entryX=0.5;entryY=0;entryDx=0;entryDy=0;" edge="1" parent="1" source="GlDdtBOUE6V0EUhZfNkV-5" target="GlDdtBOUE6V0EUhZfNkV-6">
          <mxGeometry width="50" height="50" relative="1" as="geometry">
            <mxPoint x="330" y="280" as="sourcePoint" />
            <mxPoint x="380" y="230" as="targetPoint" />
          </mxGeometry>
        </mxCell>
        <mxCell id="GlDdtBOUE6V0EUhZfNkV-8" value="Full" style="rounded=1;whiteSpace=wrap;html=1;" vertex="1" parent="1">
          <mxGeometry x="420" y="260" width="120" height="60" as="geometry" />
        </mxCell>
        <mxCell id="GlDdtBOUE6V0EUhZfNkV-9" value="" style="endArrow=classic;html=1;rounded=0;exitX=0.75;exitY=1;exitDx=0;exitDy=0;entryX=0.25;entryY=0;entryDx=0;entryDy=0;" edge="1" parent="1" source="GlDdtBOUE6V0EUhZfNkV-6" target="GlDdtBOUE6V0EUhZfNkV-8">
          <mxGeometry width="50" height="50" relative="1" as="geometry">
            <mxPoint x="330" y="280" as="sourcePoint" />
            <mxPoint x="390" y="250" as="targetPoint" />
            <Array as="points">
              <mxPoint x="410" y="240" />
              <mxPoint x="450" y="240" />
            </Array>
          </mxGeometry>
        </mxCell>
        <mxCell id="GlDdtBOUE6V0EUhZfNkV-11" value="Closed enrollment" style="rounded=1;whiteSpace=wrap;html=1;" vertex="1" parent="1">
          <mxGeometry x="200" y="260" width="120" height="60" as="geometry" />
        </mxCell>
        <mxCell id="GlDdtBOUE6V0EUhZfNkV-12" value="" style="endArrow=classic;html=1;rounded=0;exitX=0.25;exitY=1;exitDx=0;exitDy=0;entryX=0.5;entryY=0;entryDx=0;entryDy=0;" edge="1" parent="1" source="GlDdtBOUE6V0EUhZfNkV-6" target="GlDdtBOUE6V0EUhZfNkV-11">
          <mxGeometry width="50" height="50" relative="1" as="geometry">
            <mxPoint x="330" y="280" as="sourcePoint" />
            <mxPoint x="380" y="230" as="targetPoint" />
            <Array as="points">
              <mxPoint x="350" y="240" />
              <mxPoint x="260" y="240" />
            </Array>
          </mxGeometry>
        </mxCell>
        <mxCell id="GlDdtBOUE6V0EUhZfNkV-13" value="" style="endArrow=classic;html=1;rounded=0;exitX=0.75;exitY=0;exitDx=0;exitDy=0;entryX=1;entryY=0.5;entryDx=0;entryDy=0;" edge="1" parent="1" source="GlDdtBOUE6V0EUhZfNkV-8" target="GlDdtBOUE6V0EUhZfNkV-6">
          <mxGeometry width="50" height="50" relative="1" as="geometry">
            <mxPoint x="330" y="280" as="sourcePoint" />
            <mxPoint x="380" y="230" as="targetPoint" />
            <Array as="points">
              <mxPoint x="510" y="180" />
            </Array>
          </mxGeometry>
        </mxCell>
        <mxCell id="GlDdtBOUE6V0EUhZfNkV-32" value="Opened Again" style="edgeLabel;html=1;align=center;verticalAlign=middle;resizable=0;points=[];" vertex="1" connectable="0" parent="GlDdtBOUE6V0EUhZfNkV-13">
          <mxGeometry x="-0.2587" y="1" relative="1" as="geometry">
            <mxPoint x="-19" y="-44" as="offset" />
          </mxGeometry>
        </mxCell>
        <mxCell id="GlDdtBOUE6V0EUhZfNkV-14" value="Being&amp;nbsp;taught" style="rounded=1;whiteSpace=wrap;html=1;" vertex="1" parent="1">
          <mxGeometry x="200" y="360" width="120" height="60" as="geometry" />
        </mxCell>
        <mxCell id="GlDdtBOUE6V0EUhZfNkV-15" value="" style="endArrow=classic;html=1;rounded=0;entryX=0.5;entryY=0;entryDx=0;entryDy=0;exitX=0.5;exitY=1;exitDx=0;exitDy=0;" edge="1" parent="1" source="GlDdtBOUE6V0EUhZfNkV-11" target="GlDdtBOUE6V0EUhZfNkV-14">
          <mxGeometry width="50" height="50" relative="1" as="geometry">
            <mxPoint x="330" y="280" as="sourcePoint" />
            <mxPoint x="380" y="230" as="targetPoint" />
          </mxGeometry>
        </mxCell>
        <mxCell id="GlDdtBOUE6V0EUhZfNkV-20" value="Final exams" style="rounded=1;whiteSpace=wrap;html=1;" vertex="1" parent="1">
          <mxGeometry x="320" y="460" width="120" height="60" as="geometry" />
        </mxCell>
        <mxCell id="GlDdtBOUE6V0EUhZfNkV-23" value="" style="endArrow=classic;html=1;rounded=0;exitX=0.683;exitY=1.023;exitDx=0;exitDy=0;entryX=0.5;entryY=0;entryDx=0;entryDy=0;exitPerimeter=0;" edge="1" parent="1" source="GlDdtBOUE6V0EUhZfNkV-14" target="GlDdtBOUE6V0EUhZfNkV-20">
          <mxGeometry width="50" height="50" relative="1" as="geometry">
            <mxPoint x="390" y="390" as="sourcePoint" />
            <mxPoint x="440" y="340" as="targetPoint" />
            <Array as="points">
              <mxPoint x="282" y="440" />
              <mxPoint x="380" y="440" />
            </Array>
          </mxGeometry>
        </mxCell>
        <mxCell id="GlDdtBOUE6V0EUhZfNkV-25" value="" style="endArrow=classic;html=1;rounded=0;exitX=0.5;exitY=1;exitDx=0;exitDy=0;entryX=1;entryY=0.5;entryDx=0;entryDy=0;" edge="1" parent="1" source="GlDdtBOUE6V0EUhZfNkV-20" target="GlDdtBOUE6V0EUhZfNkV-28">
          <mxGeometry width="50" height="50" relative="1" as="geometry">
            <mxPoint x="390" y="390" as="sourcePoint" />
            <mxPoint x="480" y="490" as="targetPoint" />
            <Array as="points">
              <mxPoint x="380" y="560" />
            </Array>
          </mxGeometry>
        </mxCell>
        <mxCell id="GlDdtBOUE6V0EUhZfNkV-28" value="" style="ellipse;html=1;shape=endState;fillColor=light-dark(#000000,#000000);strokeColor=light-dark(#000000,#FFFFFF);" vertex="1" parent="1">
          <mxGeometry x="220" y="520" width="80" height="80" as="geometry" />
        </mxCell>
        <mxCell id="GlDdtBOUE6V0EUhZfNkV-33" value="" style="endArrow=classic;html=1;rounded=0;exitX=0;exitY=0.75;exitDx=0;exitDy=0;entryX=0;entryY=0.25;entryDx=0;entryDy=0;" edge="1" parent="1" source="GlDdtBOUE6V0EUhZfNkV-6" target="GlDdtBOUE6V0EUhZfNkV-6">
          <mxGeometry width="50" height="50" relative="1" as="geometry">
            <mxPoint x="195" y="220" as="sourcePoint" />
            <mxPoint x="280" y="160" as="targetPoint" />
            <Array as="points">
              <mxPoint x="280" y="195" />
              <mxPoint x="280" y="165" />
            </Array>
          </mxGeometry>
        </mxCell>
        <mxCell id="GlDdtBOUE6V0EUhZfNkV-34" value="Still not full" style="edgeLabel;html=1;align=center;verticalAlign=middle;resizable=0;points=[];" vertex="1" connectable="0" parent="GlDdtBOUE6V0EUhZfNkV-33">
          <mxGeometry x="0.0291" relative="1" as="geometry">
            <mxPoint as="offset" />
          </mxGeometry>
        </mxCell>
        <mxCell id="GlDdtBOUE6V0EUhZfNkV-35" value="" style="endArrow=classic;html=1;rounded=0;exitX=0;exitY=0.5;exitDx=0;exitDy=0;entryX=1;entryY=0.5;entryDx=0;entryDy=0;" edge="1" parent="1" source="GlDdtBOUE6V0EUhZfNkV-8" target="GlDdtBOUE6V0EUhZfNkV-11">
          <mxGeometry width="50" height="50" relative="1" as="geometry">
            <mxPoint x="390" y="370" as="sourcePoint" />
            <mxPoint x="440" y="320" as="targetPoint" />
          </mxGeometry>
        </mxCell>
        <mxCell id="GlDdtBOUE6V0EUhZfNkV-36" value="" style="endArrow=classic;html=1;rounded=0;exitX=0;exitY=0.75;exitDx=0;exitDy=0;entryX=0;entryY=0.25;entryDx=0;entryDy=0;" edge="1" parent="1" source="GlDdtBOUE6V0EUhZfNkV-14" target="GlDdtBOUE6V0EUhZfNkV-14">
          <mxGeometry width="50" height="50" relative="1" as="geometry">
            <mxPoint x="90" y="400" as="sourcePoint" />
            <mxPoint x="140" y="350" as="targetPoint" />
            <Array as="points">
              <mxPoint x="140" y="405" />
              <mxPoint x="140" y="375" />
            </Array>
          </mxGeometry>
        </mxCell>
        <mxCell id="GlDdtBOUE6V0EUhZfNkV-37" value="Still being taught" style="edgeLabel;html=1;align=center;verticalAlign=middle;resizable=0;points=[];" vertex="1" connectable="0" parent="GlDdtBOUE6V0EUhZfNkV-36">
          <mxGeometry x="-0.0255" y="1" relative="1" as="geometry">
            <mxPoint as="offset" />
          </mxGeometry>
        </mxCell>
        <mxCell id="GlDdtBOUE6V0EUhZfNkV-38" value="" style="endArrow=classic;html=1;rounded=0;exitX=0.5;exitY=1;exitDx=0;exitDy=0;entryX=0.5;entryY=0;entryDx=0;entryDy=0;" edge="1" parent="1" source="GlDdtBOUE6V0EUhZfNkV-14" target="GlDdtBOUE6V0EUhZfNkV-28">
          <mxGeometry width="50" height="50" relative="1" as="geometry">
            <mxPoint x="390" y="370" as="sourcePoint" />
            <mxPoint x="440" y="320" as="targetPoint" />
          </mxGeometry>
        </mxCell>
        <mxCell id="GlDdtBOUE6V0EUhZfNkV-39" value="Text" style="edgeLabel;html=1;align=center;verticalAlign=middle;resizable=0;points=[];" vertex="1" connectable="0" parent="GlDdtBOUE6V0EUhZfNkV-38">
          <mxGeometry x="0.348" relative="1" as="geometry">
            <mxPoint y="-7" as="offset" />
          </mxGeometry>
        </mxCell>
        <mxCell id="GlDdtBOUE6V0EUhZfNkV-40" value="Student quit" style="edgeLabel;html=1;align=center;verticalAlign=middle;resizable=0;points=[];" vertex="1" connectable="0" parent="GlDdtBOUE6V0EUhZfNkV-38">
          <mxGeometry x="0.148" y="1" relative="1" as="geometry">
            <mxPoint as="offset" />
          </mxGeometry>
        </mxCell>
        <mxCell id="GlDdtBOUE6V0EUhZfNkV-41" value="Matricula" style="rounded=0;whiteSpace=wrap;html=1;strokeColor=default;fillColor=none;dashed=1;dashPattern=8 8;strokeWidth=1;align=left;" vertex="1" parent="1">
          <mxGeometry x="140" y="20" width="440" height="310" as="geometry" />
        </mxCell>
        <mxCell id="GlDdtBOUE6V0EUhZfNkV-42" value="" style="endArrow=classic;html=1;rounded=0;exitX=0;exitY=0.5;exitDx=0;exitDy=0;entryX=0;entryY=0.5;entryDx=0;entryDy=0;" edge="1" parent="1" source="GlDdtBOUE6V0EUhZfNkV-41" target="GlDdtBOUE6V0EUhZfNkV-28">
          <mxGeometry width="50" height="50" relative="1" as="geometry">
            <mxPoint x="20" y="400" as="sourcePoint" />
            <mxPoint x="70" y="350" as="targetPoint" />
            <Array as="points">
              <mxPoint x="80" y="175" />
              <mxPoint x="80" y="560" />
            </Array>
          </mxGeometry>
        </mxCell>
        <mxCell id="GlDdtBOUE6V0EUhZfNkV-43" value="Cancelled" style="edgeLabel;html=1;align=center;verticalAlign=middle;resizable=0;points=[];" vertex="1" connectable="0" parent="GlDdtBOUE6V0EUhZfNkV-42">
          <mxGeometry x="0.0088" y="1" relative="1" as="geometry">
            <mxPoint x="-1" y="20" as="offset" />
          </mxGeometry>
        </mxCell>
      </root>
    </mxGraphModel>
  </diagram>
</mxfile>
